<?xml version="1.0" encoding="UTF-8"?>
<svg xmlns="http://www.w3.org/2000/svg" viewBox="0 0 512 512">
  <rect width="512" height="512" fill="#8a2be2" rx="64" ry="64"/>
  <path d="M256 128c-70.7 0-128 57.3-128 128s57.3 128 128 128 128-57.3 128-128-57.3-128-128-128zm0 224c-53 0-96-43-96-96s43-96 96-96 96 43 96 96-43 96-96 96z" fill="#ffffff"/>
  <path d="M280 240h-48v-16h48c8.8 0 16-7.2 16-16s-7.2-16-16-16h-16c-26.5 0-48 21.5-48 48v32c0 26.5 21.5 48 48 48h16c8.8 0 16-7.2 16-16s-7.2-16-16-16h-48v-16h48c8.8 0 16-7.2 16-16s-7.2-16-16-16z" fill="#ffffff"/>
  <path d="M256 176c-8.8 0-16 7.2-16 16v128c0 8.8 7.2 16 16 16s16-7.2 16-16V192c0-8.8-7.2-16-16-16z" fill="#ffffff"/>
</svg>